{"title":"Merlin (2008) S03EP12 XVID (ENG+NL SUBS) RHoek 2Lions","uid":6008673,"size":367477396,"categoryP":"video","categoryS":"tv_shows","magnet":"?xt=urn:btih:74795817b7e6c0e6cb3000d8d1dc3bf94647409f&amp;dn=Merlin+%282008%29+S03EP12+XVID+%28ENG%2BNL+SUBS%29+RHoek+2Lions&amp;tr=udp%3A%2F%2Ftracker.openbittorrent.com%3A80&amp;tr=udp%3A%2F%2Fopen.demonii.com%3A1337&amp;tr=udp%3A%2F%2Ftracker.coppersurfer.tk%3A6969&amp;tr=udp%3A%2F%2Fexodus.desync.com%3A6969","seeders":0,"leechers":1,"uploader":"RHoek-2lions","files":-1,"time":1291407312,"description":"FOR ENGLISH, PLEASE SCROLL DOWN!\n\n~~~~~~~~~~~~~~~~~~~~~~~~~~~~~~~~~~~~~~~~~~~~~~~~~~~~~~~~~\nVERHAALLIJN:\nÃ‚Â¯Ã‚Â¯Ã‚Â¯Ã‚Â¯Ã‚Â¯Ã‚Â¯Ã‚Â¯Ã‚Â¯Ã‚Â¯Ã‚Â¯Ã‚Â¯Ã‚Â¯\nEen jaar na haar vlucht uit Camelot, word Morgana gevonden, gehavend en beurs in het woud, ontvoering claimend door bandieten. Oppervlakkig berouwvol en charmant, werkt ze nog steeds voor Morgheuse, voor wie ze tranen verzameld van Pendragon. Deze worden gebruikt om hem te vervloeken en de pop van Mandrake te maken. Deze maakt hem langzaam gek, en als hij begint te hallicuneren, spoken ziend, benadert Morgheuse rivaal Koning Cenred om het gehavende koninkrijk binnen te vallen en als eerste Merlin gevangen te nemen. Deze roept echter de Grote Draak op om hem te bevrijden.\n\n~~~~~~~~~~~~~~~~~~~~~~~~~~~~~~~~~~~~~~~~~~~~~~~~~~~~~~~~~\n- Titel: Merlin (2008) S03EP12 XVID (ENG+NL SUBS) RHoek 2Lions\n- Bron: .avi\n- Genre : Fantasy\n- Ondertitelingen: Engels door 'onbekend' &amp; Nederlands door Regeer van Bierdopje.com. Superwerk weer Regeer!\n\nIMDb: http://www.imdb.com/title/tt1199099/\nOfficiÃƒÂ«le website: http://www.bbc.co.uk/merlin/\n\n~~~~~~~~~~~~~~~~~~~~~~~~~~~~~~~~~~~~~~~~~~~~~~~~~~~~~~~~~\nSTORY LINE:\nÃ‚Â¯Ã‚Â¯Ã‚Â¯Ã‚Â¯Ã‚Â¯Ã‚Â¯Ã‚Â¯Ã‚Â¯Ã‚Â¯Ã‚Â¯Ã‚Â¯\nA year after her flight from Camelot, Morgana is found,dishevelled and bruised in the forest,claiming abduction by bandits. Superficially contrite and charming,she is still in league with Morghause,for whom she collects tears shed by Pendragon. These are used to curse him and fashion a doll from mandrake,which Morgana places under his bed.It slowly starts to drive him mad and, as he begins to hallucinate,seeing ghosts,Morghause approaches rival king Cenred to invade the weakened kingdom,having first taken Merlin prisoner. However Merlin summons the Great Dragon to come and free him.\n\n~~~~~~~~~~~~~~~~~~~~~~~~~~~~~~~~~~~~~~~~~~~~~~~~~~~~~~~~~\n- Title: Merlin (2008) S03EP12 XVID (ENG+NL SUBS) RHoek 2Lions\n- Source: .avi\n- Genre : Fantasy\n- Subtitles: English by 'unknown' &amp; Dutch by Regeer from Bierdopje.com.\n\nIMDb: http://www.imdb.com/title/tt1199099/\nOfficial website: http://www.bbc.co.uk/merlin/\n\n~~~~~~~~~~~~~~~~~~~~~~~~~~~~~~~~~~~~~~~~~~~~~~~~~~~~~~~~~\nVIDEO AND AUDIO INFORMATION\nÃ‚Â¯Ã‚Â¯Ã‚Â¯Ã‚Â¯Ã‚Â¯Ã‚Â¯Ã‚Â¯Ã‚Â¯Ã‚Â¯Ã‚Â¯Ã‚Â¯Ã‚Â¯Ã‚Â¯Ã‚Â¯Ã‚Â¯Ã‚Â¯Ã‚Â¯Ã‚Â¯Ã‚Â¯Ã‚Â¯Ã‚Â¯Ã‚Â¯Ã‚Â¯Ã‚Â¯Ã‚Â¯Ã‚Â¯Ã‚Â¯Ã‚Â¯Ã‚Â¯Ã‚Â¯\nVideo\nID                               : 0\nFormat                           : MPEG-4 Visual\nFormat profile                   : Advanced Simple@L5\nFormat settings, BVOP            : Yes\nFormat settings, QPel            : No\nFormat settings, GMC             : No warppoints\nFormat settings, Matrix          : Default (H.263)\nMuxing mode                      : Packed bitstream\nCodec ID                         : XVID\nCodec ID/Hint                    : XviD\nDuration                         : 42mn 53s\nBit rate                         : 1 000 Kbps\nWidth                            : 624 pixels\nHeight                           : 352 pixels\nDisplay aspect ratio             : 16:9\nFrame rate                       : 25.000 fps\nColor space                      : YUV\nChroma subsampling               : 4:2:0\nBit depth                        : 8 bits\nScan type                        : Progressive\nBits/(Pixel*Frame)               : 0.182\nStream size                      : 307 MiB (88%)\nWriting library                  : XviD 1.2.1 (UTC 2008-12-04)\n\nAudio\nID                               : 1\nFormat                           : MPEG Audio\nFormat version                   : Version 1\nFormat profile                   : Layer 3\nMode                             : Joint stereo\nMode extension                   : MS Stereo\nCodec ID                         : 55\nCodec ID/Hint                    : MP3\nDuration                         : 42mn 53s\nBit rate mode                    : Variable\nBit rate                         : 192 Kbps\nChannel(s)                       : 2 channels\nSampling rate                    : 48.0 KHz\nBit depth                        : 16 bits\nStream size                      : 39.6 MiB (11%)\nAlignment                        : Aligned on interleaves\nInterleave, duration             : 24 ms (0.60 video frame)\n*****************************************\nBrought to you by Ren HÃƒÂ¶ek.\n******************************************","torrent":{"xt":"urn:btih:74795817b7e6c0e6cb3000d8d1dc3bf94647409f","amp;dn":"Merlin+%282008%29+S03EP12+XVID+%28ENG%2BNL+SUBS%29+RHoek+2Lions","amp;tr":["udp%3A%2F%2Ftracker.openbittorrent.com%3A80","udp%3A%2F%2Fopen.demonii.com%3A1337","udp%3A%2F%2Ftracker.coppersurfer.tk%3A6969","udp%3A%2F%2Fexodus.desync.com%3A6969"],"infoHash":"74795817b7e6c0e6cb3000d8d1dc3bf94647409f","infoHashBuffer":{"type":"Buffer","data":[116,121,88,23,183,230,192,230,203,48,0,216,209,220,59,249,70,71,64,159]},"announce":[],"urlList":[]}}